<svg width="25" height="24" viewBox="0 0 25 24" fill="none" xmlns="http://www.w3.org/2000/svg">
<g id="Icons">
<path id="Vector" d="M15.9051 14H15.1287L14.8535 13.73C15.8166 12.59 16.3965 11.11 16.3965 9.5C16.3965 5.91 13.5366 3 10.0085 3C6.48043 3 3.62061 5.91 3.62061 9.5C3.62061 13.09 6.48043 16 10.0085 16C11.5908 16 13.0453 15.41 14.1656 14.43L14.431 14.71V15.5L19.3447 20.49L20.8091 19L15.9051 14ZM10.0085 14C7.56147 14 5.58612 11.99 5.58612 9.5C5.58612 7.01 7.56147 5 10.0085 5C12.4556 5 14.431 7.01 14.431 9.5C14.431 11.99 12.4556 14 10.0085 14Z" fill="black"/>
</g>
</svg>